<?xml version="1.0" encoding="utf-8"?>
<!-- Generator: Adobe Illustrator 23.0.2, SVG Export Plug-In . SVG Version: 6.00 Build 0)  -->
<svg version="1.1" id="Layer_1" xmlns="http://www.w3.org/2000/svg" xmlns:xlink="http://www.w3.org/1999/xlink" x="0px" y="0px"
	 viewBox="0 0 236 175" style="enable-background:new 0 0 236 175;" xml:space="preserve">
<pattern  y="175" width="280.2" height="280.2" patternUnits="userSpaceOnUse" id="blue-pattern" viewBox="0 -280.2 280.2 280.2" style="overflow:visible;">
	<g>
		<rect y="-280.2" style="fill:none;" width="280.2" height="280.2"/>
		<g style="opacity:0.5;">
			<polygon style="fill:#1D315C;" points="120.4,0 280.2,-159.8 280.2,-160.5 119.7,0 			"/>
			<polygon style="fill:#1D315C;" points="133.8,0 280.2,-146.4 280.2,-147.1 133.1,0 			"/>
			<polygon style="fill:#1D315C;" points="147.1,0 280.2,-133.1 280.2,-133.8 146.4,0 			"/>
			<polygon style="fill:#1D315C;" points="160.4,0 280.2,-119.8 280.2,-120.4 159.8,0 			"/>
			<polygon style="fill:#1D315C;" points="173.8,0 280.2,-106.4 280.2,-107.1 173.1,0 			"/>
			<polygon style="fill:#1D315C;" points="187.1,0 280.2,-93.1 280.2,-93.7 186.5,0 			"/>
			<polygon style="fill:#1D315C;" points="200.5,0 280.2,-79.7 280.2,-80.4 199.8,0 			"/>
			<polygon style="fill:#1D315C;" points="213.8,0 280.2,-66.4 280.2,-67.1 213.1,0 			"/>
			<polygon style="fill:#1D315C;" points="227.1,0 280.2,-53.1 280.2,-53.7 226.5,0 			"/>
			<polygon style="fill:#1D315C;" points="240.5,0 280.2,-39.7 280.2,-40.4 239.8,0 			"/>
			<polygon style="fill:#1D315C;" points="253.8,0 280.2,-26.4 280.2,-27 253.2,0 			"/>
			<polygon style="fill:#1D315C;" points="267.2,0 280.2,-13 280.2,-13.7 266.5,0 			"/>
			<polygon style="fill:#1D315C;" points="280.2,0 280.2,-0.3 279.9,0 			"/>
			<polygon style="fill:#1D315C;" points="107.1,0 280.2,-173.1 280.2,-173.8 106.4,0 			"/>
			<polygon style="fill:#1D315C;" points="93.7,0 280.2,-186.5 280.2,-187.1 93.1,0 			"/>
			<polygon style="fill:#1D315C;" points="80.4,0 280.2,-199.8 280.2,-200.5 79.7,0 			"/>
			<polygon style="fill:#1D315C;" points="67,0 280.2,-213.2 280.2,-213.8 66.4,0 			"/>
			<polygon style="fill:#1D315C;" points="53.7,0 280.2,-226.5 280.2,-227.2 53,0 			"/>
			<polygon style="fill:#1D315C;" points="40.4,0 280.2,-239.8 280.2,-240.5 39.7,0 			"/>
			<polygon style="fill:#1D315C;" points="27,0 280.2,-253.2 280.2,-253.8 26.4,0 			"/>
			<polygon style="fill:#1D315C;" points="13.7,0 280.2,-266.5 280.2,-267.2 13,0 			"/>
			<polygon style="fill:#1D315C;" points="280.2,-280.2 279.9,-280.2 0,-0.3 0,0 0.3,0 280.2,-279.9 			"/>
			<polygon style="fill:#1D315C;" points="266.5,-280.2 0,-13.7 0,-13 267.2,-280.2 			"/>
			<polygon style="fill:#1D315C;" points="253.2,-280.2 0,-27 0,-26.4 253.8,-280.2 			"/>
			<polygon style="fill:#1D315C;" points="239.8,-280.2 0,-40.4 0,-39.7 240.5,-280.2 			"/>
			<polygon style="fill:#1D315C;" points="226.5,-280.2 0,-53.7 0,-53 227.2,-280.2 			"/>
			<polygon style="fill:#1D315C;" points="213.2,-280.2 0,-67 0,-66.4 213.8,-280.2 			"/>
			<polygon style="fill:#1D315C;" points="199.8,-280.2 0,-80.4 0,-79.7 200.5,-280.2 			"/>
			<polygon style="fill:#1D315C;" points="186.5,-280.2 0,-93.7 0,-93.1 187.1,-280.2 			"/>
			<polygon style="fill:#1D315C;" points="173.1,-280.2 0,-107.1 0,-106.4 173.8,-280.2 			"/>
			<polygon style="fill:#1D315C;" points="159.8,-280.2 0,-120.4 0,-119.7 160.5,-280.2 			"/>
			<polygon style="fill:#1D315C;" points="146.4,-280.2 0,-133.8 0,-133.1 147.1,-280.2 			"/>
			<polygon style="fill:#1D315C;" points="133.1,-280.2 0,-147.1 0,-146.4 133.8,-280.2 			"/>
			<polygon style="fill:#1D315C;" points="119.8,-280.2 0,-160.4 0,-159.8 120.4,-280.2 			"/>
			<polygon style="fill:#1D315C;" points="106.4,-280.2 0,-173.8 0,-173.1 107.1,-280.2 			"/>
			<polygon style="fill:#1D315C;" points="93.1,-280.2 0,-187.1 0,-186.5 93.7,-280.2 			"/>
			<polygon style="fill:#1D315C;" points="79.7,-280.2 0,-200.5 0,-199.8 80.4,-280.2 			"/>
			<polygon style="fill:#1D315C;" points="66.4,-280.2 0,-213.8 0,-213.1 67.1,-280.2 			"/>
			<polygon style="fill:#1D315C;" points="53.1,-280.2 0,-227.1 0,-226.5 53.7,-280.2 			"/>
			<polygon style="fill:#1D315C;" points="39.7,-280.2 0,-240.5 0,-239.8 40.4,-280.2 			"/>
			<polygon style="fill:#1D315C;" points="26.4,-280.2 0,-253.8 0,-253.2 27,-280.2 			"/>
			<polygon style="fill:#1D315C;" points="13,-280.2 0,-267.2 0,-266.5 13.7,-280.2 			"/>
			<polygon style="fill:#1D315C;" points="0,-280.2 0,-279.9 0.3,-280.2 			"/>
			<polygon style="fill:#1D315C;" points="127.2,0 280.2,-153 280.2,-153.7 126.5,0 			"/>
			<polygon style="fill:#1D315C;" points="140.5,0 280.2,-139.7 280.2,-140.3 139.9,0 			"/>
			<polygon style="fill:#1D315C;" points="153.9,0 280.2,-126.3 280.2,-127 153.2,0 			"/>
			<polygon style="fill:#1D315C;" points="167.2,0 280.2,-113 280.2,-113.7 166.5,0 			"/>
			<polygon style="fill:#1D315C;" points="180.6,0 280.2,-99.6 280.2,-100.3 179.9,0 			"/>
			<polygon style="fill:#1D315C;" points="193.9,0 280.2,-86.3 280.2,-87 193.2,0 			"/>
			<polygon style="fill:#1D315C;" points="207.2,0 280.2,-73 280.2,-73.6 206.6,0 			"/>
			<polygon style="fill:#1D315C;" points="220.6,0 280.2,-59.6 280.2,-60.3 219.9,0 			"/>
			<polygon style="fill:#1D315C;" points="233.9,0 280.2,-46.3 280.2,-46.9 233.3,0 			"/>
			<polygon style="fill:#1D315C;" points="247.3,0 280.2,-32.9 280.2,-33.6 246.6,0 			"/>
			<polygon style="fill:#1D315C;" points="260.6,0 280.2,-19.6 280.2,-20.3 259.9,0 			"/>
			<polygon style="fill:#1D315C;" points="273.9,0 280.2,-6.3 280.2,-6.9 273.3,0 			"/>
			<polygon style="fill:#1D315C;" points="113.8,0 280.2,-166.4 280.2,-167 113.2,0 			"/>
			<polygon style="fill:#1D315C;" points="100.5,0 280.2,-179.7 280.2,-180.4 99.8,0 			"/>
			<polygon style="fill:#1D315C;" points="87.2,0 280.2,-193 280.2,-193.7 86.5,0 			"/>
			<polygon style="fill:#1D315C;" points="73.8,0 280.2,-206.4 280.2,-207 73.2,0 			"/>
			<polygon style="fill:#1D315C;" points="60.5,0 280.2,-219.7 280.2,-220.4 59.8,0 			"/>
			<polygon style="fill:#1D315C;" points="47.1,0 280.2,-233.1 280.2,-233.7 46.5,0 			"/>
			<polygon style="fill:#1D315C;" points="33.8,0 280.2,-246.4 280.2,-247.1 33.1,0 			"/>
			<polygon style="fill:#1D315C;" points="20.4,0 280.2,-259.8 280.2,-260.4 19.8,0 			"/>
			<polygon style="fill:#1D315C;" points="7.1,0 280.2,-273.1 280.2,-273.8 6.4,0 			"/>
			<polygon style="fill:#1D315C;" points="273.3,-280.2 0,-6.9 0,-6.2 274,-280.2 			"/>
			<polygon style="fill:#1D315C;" points="260,-280.2 0,-20.2 0,-19.6 260.6,-280.2 			"/>
			<polygon style="fill:#1D315C;" points="246.6,-280.2 0,-33.6 0,-32.9 247.3,-280.2 			"/>
			<polygon style="fill:#1D315C;" points="233.3,-280.2 0,-46.9 0,-46.3 233.9,-280.2 			"/>
			<polygon style="fill:#1D315C;" points="219.9,-280.2 0,-60.3 0,-59.6 220.6,-280.2 			"/>
			<polygon style="fill:#1D315C;" points="206.6,-280.2 0,-73.6 0,-73 207.2,-280.2 			"/>
			<polygon style="fill:#1D315C;" points="193.2,-280.2 0,-87 0,-86.3 193.9,-280.2 			"/>
			<polygon style="fill:#1D315C;" points="179.9,-280.2 0,-100.3 0,-99.6 180.6,-280.2 			"/>
			<polygon style="fill:#1D315C;" points="166.6,-280.2 0,-113.6 0,-113 167.2,-280.2 			"/>
			<polygon style="fill:#1D315C;" points="153.2,-280.2 0,-127 0,-126.3 153.9,-280.2 			"/>
			<polygon style="fill:#1D315C;" points="139.9,-280.2 0,-140.3 0,-139.7 140.5,-280.2 			"/>
			<polygon style="fill:#1D315C;" points="126.5,-280.2 0,-153.7 0,-153 127.2,-280.2 			"/>
			<polygon style="fill:#1D315C;" points="113.2,-280.2 0,-167 0,-166.3 113.9,-280.2 			"/>
			<polygon style="fill:#1D315C;" points="99.9,-280.2 0,-180.3 0,-179.7 100.5,-280.2 			"/>
			<polygon style="fill:#1D315C;" points="86.5,-280.2 0,-193.7 0,-193 87.2,-280.2 			"/>
			<polygon style="fill:#1D315C;" points="73.2,-280.2 0,-207 0,-206.4 73.8,-280.2 			"/>
			<polygon style="fill:#1D315C;" points="59.8,-280.2 0,-220.4 0,-219.7 60.5,-280.2 			"/>
			<polygon style="fill:#1D315C;" points="46.5,-280.2 0,-233.7 0,-233.1 47.1,-280.2 			"/>
			<polygon style="fill:#1D315C;" points="33.1,-280.2 0,-247.1 0,-246.4 33.8,-280.2 			"/>
			<polygon style="fill:#1D315C;" points="19.8,-280.2 0,-260.4 0,-259.7 20.5,-280.2 			"/>
			<polygon style="fill:#1D315C;" points="6.5,-280.2 0,-273.7 0,-273.1 7.1,-280.2 			"/>
		</g>
	</g>
</pattern>
<g>
	<path style="fill:#EFF3F4;" d="M229,172H6.5c-2.8,0-5-2.2-5-5V7c0-2.8,2.2-5,5-5H229c2.8,0,5,2.2,5,5v160
		C234,169.8,231.8,172,229,172z"/>
	<text transform="matrix(1 0 0 1 35.5137 155.1626)" style="fill:#333333; font-family:'CuratorRegular'; font-size:14px;">6-member GRCs</text>
	<text transform="matrix(1 0 0 1 35.5137 130.7222)" style="fill:#333333; font-family:'CuratorRegular'; font-size:14px;">5-member GRCs</text>
	<text transform="matrix(1 0 0 1 35.3164 106.281)" style="fill:#333333; font-family:'CuratorRegular'; font-size:14px;">4-member GRCs</text>
	<g>
		<text transform="matrix(1 0 0 1 35.5137 81.8403)" style="fill:#333333; font-family:'CuratorRegular'; font-size:14px;">Single member constituencies</text>
	</g>
	<rect x="14" y="144" style="opacity:0.8;fill:#192C56;enable-background:new    ;" width="15" height="15"/>
	<rect x="14" y="119.1" style="opacity:0.6;fill:#192C56;enable-background:new    ;" width="15" height="15"/>
	<rect x="13.8" y="94.2" style="opacity:0.3;fill:#192C56;enable-background:new    ;" width="15" height="15"/>
	<rect x="14" y="69.4" style="opacity:0.15;fill:#1D315C;enable-background:new    ;" width="15" height="15"/>
	<text transform="matrix(1 0 0 1 35.3164 57.3994)" style="fill:#333333; font-family:'CuratorRegular'; font-size:14px;">Opposition wards</text>
	<pattern  id="SVGID_1_" xlink:href="#blue-pattern" patternTransform="matrix(1 0 0 1 -172.2 83.2)">
	</pattern>
	<rect x="14.5" y="44.5" style="fill:url(#SVGID_1_);" width="15" height="15"/>
	<text transform="matrix(1 0 0 1 14.1748 26.1748)" style="font-family:'CuratorRegular'; font-size:14px;">CONSTITUENCY TYPE</text>
</g>
</svg>
